<?xml version="1.0" standalone="no"?>
<!DOCTYPE svg PUBLIC "-//W3C//DTD SVG 20010904//EN"
 "http://www.w3.org/TR/2001/REC-SVG-20010904/DTD/svg10.dtd">
<svg version="1.0" xmlns="http://www.w3.org/2000/svg"
 width="1000.000000pt" height="1000.000000pt" viewBox="0 0 1000.000000 1000.000000"
 preserveAspectRatio="xMidYMid meet">
<metadata>
Created by potrace 1.14, written by Peter Selinger 2001-2017
</metadata>
<g transform="translate(0.000000,1000.000000) scale(0.100000,-0.100000)"
fill="#000000" stroke="none">
<path d="M283 7700 c-97 -20 -168 -81 -200 -175 -17 -47 -18 -198 -18 -2545 0
-2347 1 -2498 18 -2545 23 -68 66 -118 129 -149 l52 -26 3145 0 c3450 0 6250
14 6311 30 69 19 132 69 164 133 l30 59 0 2497 0 2498 -28 56 c-32 66 -82 111
-146 131 -77 25 -330 26 -7365 40 -1127 2 -2069 0 -2092 -4z m6402 -116 c1386
-3 2626 -9 2755 -13 210 -5 239 -8 275 -27 62 -31 88 -94 93 -216 3 -54 3 -98
1 -98 -2 0 -29 10 -59 21 -55 22 -64 22 -1160 29 -1191 8 -4456 15 -6845 15
l-1480 0 -43 -22 -44 -21 4 106 c5 156 31 199 136 228 38 11 424 12 1947 9
1045 -3 3034 -8 4420 -11z m2515 -422 c458 -7 466 -7 511 -30 38 -19 51 -32
70 -75 24 -51 24 -57 20 -287 -3 -129 -4 -293 -4 -365 1 -71 2 -704 2 -1405 1
-701 2 -1372 4 -1490 1 -118 2 -386 2 -595 0 -379 0 -380 -24 -428 -17 -34
-35 -54 -65 -70 -40 -21 -54 -22 -476 -28 -530 -8 -3334 -17 -6535 -21 l-2380
-3 -47 23 c-49 24 -67 46 -87 102 -15 44 -26 3174 -14 4005 8 517 10 563 27
598 18 36 50 60 106 78 28 10 8162 1 8890 -9z"/>
<path d="M3215 5273 c-16 -2 -49 -11 -73 -19 -47 -17 -66 -45 -75 -109 -4 -22
-25 -163 -48 -312 -47 -306 -46 -320 18 -351 29 -14 48 -15 146 -5 173 18 300
72 348 150 45 72 44 144 -4 214 l-23 34 29 46 c60 98 45 214 -38 287 -69 60
-156 81 -280 65z m200 -61 c48 -24 90 -67 104 -105 25 -65 1 -156 -52 -206
l-26 -23 34 -33 c123 -124 23 -276 -212 -321 -41 -8 -104 -14 -141 -14 -74 0
-102 16 -102 59 0 35 78 546 91 593 5 21 19 43 31 49 61 33 210 34 273 1z"/>
<path d="M3211 5030 c-7 -49 -9 -94 -5 -101 10 -17 111 -3 150 21 97 61 45
170 -82 170 l-51 0 -12 -90z m139 26 c13 -15 20 -32 17 -40 -9 -23 -68 -56
-100 -56 -28 0 -28 1 -22 48 9 69 11 72 48 72 23 0 41 -8 57 -24z"/>
<path d="M3175 4788 c-6 -22 -26 -150 -23 -153 2 -1 39 2 83 7 100 12 165 39
165 68 0 35 -17 57 -60 74 -49 19 -159 22 -165 4z m155 -41 c53 -27 14 -55
-96 -69 -45 -6 -43 -10 -29 55 5 25 9 27 53 27 26 0 58 -6 72 -13z"/>
<path d="M4760 5270 c-25 -5 -71 -9 -103 -9 -32 -1 -67 -6 -78 -11 -29 -16
-48 -61 -55 -136 -3 -38 -19 -125 -34 -194 -71 -317 -64 -406 34 -446 89 -36
378 -27 418 13 41 42 39 131 -5 155 -15 8 -66 11 -160 9 -130 -2 -139 -1 -134
16 3 10 8 35 11 55 8 42 -2 39 200 58 143 13 178 36 178 118 0 27 -7 42 -28
61 -28 23 -31 24 -144 17 -63 -3 -125 -9 -136 -12 -21 -6 -21 -4 -12 48 5 29
12 55 14 57 7 8 190 6 250 -3 59 -8 62 -7 93 20 45 41 54 102 18 137 -13 14
-42 30 -63 36 -53 15 -209 22 -264 11z m-215 -597 c26 -14 50 -35 53 -45 3
-11 13 -18 30 -18 14 0 67 -24 119 -52 l93 -53 -33 -9 c-49 -13 -240 0 -276
18 -37 20 -56 78 -46 143 3 24 8 43 9 43 2 0 25 -12 51 -27z"/>
<path d="M6650 5270 c-25 -5 -68 -9 -97 -9 -102 -2 -126 -28 -138 -146 -4 -38
-23 -142 -43 -230 -58 -264 -49 -370 36 -411 76 -36 384 -27 424 13 41 42 39
131 -5 155 -15 8 -66 11 -160 9 -130 -2 -139 -1 -134 16 3 10 8 35 11 55 8 42
-5 38 201 58 144 15 177 37 177 118 0 27 -7 42 -28 60 -27 24 -31 25 -144 18
-63 -4 -125 -9 -136 -12 -21 -5 -21 -4 -12 48 5 29 12 55 14 57 7 8 190 6 250
-3 59 -8 62 -7 93 20 45 41 54 102 18 137 -13 14 -42 30 -63 36 -53 15 -209
22 -264 11z"/>
<path d="M4205 5232 c-43 -27 -46 -31 -116 -207 l-64 -160 -7 143 c-8 168 -20
201 -81 216 -49 13 -98 -10 -131 -61 -14 -21 -45 -92 -69 -158 -25 -66 -70
-180 -101 -254 -31 -74 -60 -154 -63 -178 -12 -88 39 -138 118 -114 49 15 65
40 110 172 l34 101 13 -99 c18 -136 48 -173 126 -159 45 9 74 44 142 172 l52
97 7 -89 c8 -118 13 -138 36 -168 43 -54 142 -38 173 29 14 29 14 44 1 146 -9
63 -18 200 -21 304 -4 138 -10 200 -21 226 -24 58 -82 75 -138 41z m-253 -222
c27 -15 28 -17 29 -115 0 -55 4 -118 8 -140 l8 -40 48 103 c27 56 53 102 59
102 6 0 26 -9 43 -20 l33 -20 -20 -49 c-26 -68 -106 -225 -137 -273 -41 -61
-103 -64 -122 -5 -12 37 -31 225 -31 307 0 34 -4 50 -9 45 -6 -6 -37 -91 -71
-190 -63 -188 -85 -225 -131 -225 -68 0 -64 74 13 250 30 69 75 175 99 237
l43 112 55 -31 c31 -18 68 -39 83 -48z m390 -334 c18 -140 12 -165 -40 -180
-28 -8 -36 -6 -54 12 -25 24 -36 124 -30 269 l3 81 53 -30 52 -30 16 -122z"/>
<path d="M5502 5230 c-103 -11 -186 -54 -277 -144 -172 -169 -231 -344 -160
-473 79 -147 267 -160 463 -34 71 46 93 90 72 142 -13 30 -55 59 -85 59 -9 0
-55 -20 -102 -45 -47 -25 -98 -45 -113 -45 -60 0 -77 57 -40 130 25 48 143
176 181 196 36 18 59 18 59 0 0 -8 12 -24 28 -36 38 -31 97 -22 135 20 15 16
27 39 27 50 0 19 1 19 36 -2 23 -13 59 -22 105 -26 67 -5 69 -6 69 -31 0 -45
-39 -391 -45 -401 -3 -5 1 -24 8 -43 39 -93 171 -59 196 51 9 40 51 383 51
419 0 8 36 12 115 15 108 3 116 5 141 29 38 39 43 97 11 135 l-25 29 -284 0
c-292 0 -336 -5 -356 -41 -9 -15 -11 -14 -25 13 -24 46 -36 48 -185 33z"/>
</g>
</svg>
