<?xml version="1.0" standalone="no"?>
<!DOCTYPE svg PUBLIC "-//W3C//DTD SVG 20010904//EN"
 "http://www.w3.org/TR/2001/REC-SVG-20010904/DTD/svg10.dtd">
<svg version="1.0" xmlns="http://www.w3.org/2000/svg"
 width="512.000000pt" height="512.000000pt" viewBox="0 0 512.000000 512.000000"
 preserveAspectRatio="xMidYMid meet">
<metadata>
Created by potrace 1.14, written by Peter Selinger 2001-2017
</metadata>
<g transform="translate(0.000000,512.000000) scale(0.100000,-0.100000)"
fill="#000000" stroke="none">
<path d="M2408 3860 c-2 -7 -24 -14 -48 -16 -81 -5 -160 -28 -160 -44 0 -5 -7
-7 -15 -4 -8 4 -15 1 -15 -5 0 -6 -7 -11 -15 -11 -8 0 -15 -4 -15 -10 0 -5 -6
-10 -12 -10 -7 0 -40 -29 -73 -64 -78 -83 -89 -97 -91 -114 -2 -7 -11 -23 -21
-34 -10 -11 -17 -22 -15 -24 1 -2 2 -10 2 -16 -1 -7 -10 7 -22 32 -11 25 -26
48 -32 52 -6 4 -7 8 -3 8 4 0 -1 10 -12 22 -11 11 -18 25 -15 30 3 5 2 7 -3 6
-11 -4 -53 39 -46 46 4 3 -1 6 -11 6 -9 0 -14 5 -11 10 3 6 -1 10 -9 10 -8 0
-21 9 -29 20 -8 11 -17 17 -20 13 -4 -3 -7 -1 -7 6 0 7 -4 9 -10 6 -5 -3 -10
-2 -10 3 0 4 -16 14 -35 22 -19 8 -35 18 -35 22 0 5 -4 6 -10 3 -5 -3 -16 -3
-22 2 -7 4 -16 8 -20 9 -5 1 -9 2 -10 3 -2 1 -23 4 -47 6 -25 3 -51 7 -58 9
-7 3 -15 1 -18 -4 -3 -4 -13 -7 -23 -5 -9 1 -23 -2 -29 -8 -9 -6 -13 -6 -13 2
0 7 -5 9 -12 4 -7 -4 -19 -8 -27 -10 -8 -1 -26 -5 -40 -9 -14 -4 -29 -7 -33
-6 -5 1 -8 -3 -8 -8 0 -6 -9 -10 -20 -10 -11 0 -20 -4 -20 -10 0 -5 -5 -10
-11 -10 -12 0 -92 -60 -97 -72 -2 -5 -8 -6 -13 -2 -5 3 -8 2 -7 -3 2 -4 -10
-23 -26 -40 -31 -34 -52 -67 -62 -95 -3 -10 -11 -15 -18 -11 -6 3 -8 3 -4 -1
3 -4 0 -24 -9 -44 -14 -35 -17 -44 -31 -107 -11 -55 -3 -255 11 -255 5 0 5 -4
2 -10 -3 -5 -1 -10 4 -10 6 0 10 -3 10 -7 -3 -17 14 -73 22 -73 5 0 9 -8 9
-18 0 -10 9 -24 19 -32 11 -7 18 -16 16 -20 -6 -9 111 -130 119 -123 3 3 6 1
6 -5 0 -6 9 -14 20 -17 11 -4 18 -11 14 -16 -3 -6 -8 -8 -11 -5 -17 17 -109
-47 -97 -66 3 -5 1 -8 -4 -8 -5 0 -8 -10 -8 -22 1 -13 -2 -29 -7 -35 -6 -8 -6
-13 0 -13 5 0 9 -16 9 -35 0 -19 -5 -35 -11 -35 -5 0 -3 -5 5 -10 17 -11 15
-11 -57 -15 -40 -2 -56 2 -72 17 -12 10 -21 16 -21 12 0 -3 -15 5 -34 20 -19
14 -39 26 -45 26 -6 0 -11 4 -11 8 0 8 -45 36 -126 80 -13 7 -24 18 -24 23 0
6 -4 7 -10 4 -5 -3 -10 -2 -10 2 0 10 -59 43 -86 48 -10 2 -19 4 -19 5 0 1
-10 3 -22 4 -12 1 -20 -1 -17 -6 8 -13 -29 -6 -38 7 -5 6 -8 5 -8 -3 0 -7 -4
-11 -9 -8 -5 4 -15 4 -23 1 -11 -5 -14 -92 -13 -513 0 -279 3 -512 7 -517 3
-6 38 -9 80 -8 94 4 98 5 98 15 0 5 5 6 10 3 6 -3 13 1 16 9 3 9 10 14 14 11
4 -3 11 2 14 11 3 8 10 12 16 9 5 -3 10 -1 10 4 0 6 7 11 15 11 8 0 15 4 15 9
0 5 16 16 35 25 20 10 33 21 30 26 -3 6 1 7 9 4 9 -3 16 -1 16 6 0 6 5 8 10 5
6 -3 10 -1 10 4 0 6 7 11 15 11 8 0 15 5 15 10 0 6 7 10 15 10 8 0 15 5 15 11
0 5 5 7 10 4 6 -3 13 1 16 10 4 9 13 14 20 11 8 -3 13 0 11 6 -1 6 7 12 18 14
11 2 32 5 48 8 30 5 34 -2 15 -24 -7 -8 -4 -7 7 2 14 12 25 14 35 8 13 -9 13
-10 0 -10 -12 0 -12 -2 -1 -9 10 -6 10 -13 2 -28 -5 -11 -7 -23 -4 -27 10 -10
14 -48 5 -42 -5 3 -9 -1 -9 -9 0 -8 4 -12 9 -9 4 3 8 -4 8 -16 0 -12 14 -34
31 -49 26 -24 39 -28 85 -28 30 -1 61 -6 69 -13 9 -7 18 -10 22 -6 3 3 0 6 -8
7 -8 1 -3 4 11 8 14 4 30 5 35 1 9 -5 30 -6 38 -1 3 3 190 3 200 0 21 -5 34
-4 55 3 12 4 22 4 22 -1 0 -10 52 -7 69 3 6 4 11 3 11 -1 0 -5 16 -9 35 -9 19
0 35 4 35 8 0 5 9 4 19 -2 11 -5 27 -7 35 -4 25 9 136 10 136 1 0 -5 5 -5 10
-2 6 3 10 -2 11 -12 0 -14 2 -15 6 -3 9 23 23 29 52 21 33 -8 53 -7 69 2 6 5
12 5 12 0 0 -10 52 -9 68 1 7 4 12 3 12 -3 0 -6 7 -7 17 -4 12 5 14 3 8 -8 -7
-12 -6 -12 9 1 21 16 46 22 46 10 0 -9 19 -8 36 3 6 3 14 3 18 0 10 -10 86
-10 86 0 0 4 5 5 11 1 7 -4 71 -6 143 -5 162 3 166 3 159 15 -4 5 1 7 12 2 15
-5 16 -4 6 8 -9 11 -9 16 0 22 7 4 9 3 6 -3 -3 -5 0 -10 7 -10 7 0 12 9 11 21
-1 11 2 37 5 58 5 24 3 39 -4 42 -6 2 -6 5 -1 5 11 1 11 223 0 241 -3 5 -3 10
2 10 7 0 7 363 0 385 -2 6 3 16 12 23 9 8 10 11 4 7 -10 -5 -13 9 -13 54 0 38
4 61 13 64 7 3 4 6 -6 6 -10 1 -15 5 -12 11 3 5 -6 21 -20 36 -14 14 -23 29
-20 34 3 4 -4 6 -15 3 -11 -3 -20 0 -20 6 0 6 -5 11 -11 11 -5 0 -8 -4 -5 -8
3 -5 -2 -9 -10 -9 -11 0 -8 7 10 24 14 13 28 23 31 23 11 0 125 132 125 146 0
4 10 19 23 32 12 14 15 21 7 16 -12 -6 -11 -3 2 18 18 27 36 92 45 158 2 19 6
40 8 47 2 6 -1 14 -8 17 -7 2 -7 5 -2 5 6 1 9 24 7 53 -4 76 -4 78 -14 78 -5
0 -7 4 -3 9 3 5 1 12 -4 15 -5 3 -7 16 -3 28 4 16 2 19 -8 13 -10 -6 -12 -3
-8 13 4 12 2 22 -2 22 -8 0 -16 18 -22 45 -1 6 -12 21 -24 34 -13 14 -20 29
-17 34 3 6 1 7 -5 3 -7 -4 -12 -4 -12 1 0 41 -203 183 -262 183 -10 0 -18 4
-18 8 0 5 -23 8 -51 9 -30 0 -54 5 -59 13 -6 10 -8 10 -12 0z m-1035 -93 c-4
-7 1 -6 10 2 22 18 67 23 67 8 0 -7 5 -5 10 3 8 12 10 12 10 1 0 -11 3 -11 15
-1 12 10 16 9 21 -5 5 -13 9 -14 15 -4 6 10 11 10 22 1 7 -7 17 -9 20 -5 4 3
7 2 7 -4 0 -5 7 -10 15 -11 8 -1 22 -3 30 -4 8 -1 15 -5 15 -10 0 -4 7 -8 16
-8 9 0 12 -5 8 -12 -5 -7 -2 -9 8 -5 24 9 168 -136 168 -169 0 -8 5 -14 10
-14 6 0 10 -9 10 -20 0 -11 5 -20 11 -20 6 0 9 -9 6 -20 -3 -11 -2 -20 2 -20
8 0 9 -5 13 -60 2 -19 7 -38 12 -41 4 -4 3 -17 -4 -29 -7 -12 -8 -20 -2 -16 6
3 8 -7 6 -27 -1 -17 -3 -32 -4 -32 -3 0 -12 -60 -11 -77 0 -10 -4 -18 -8 -18
-4 0 -8 -6 -8 -13 0 -15 -41 -104 -58 -125 -35 -45 -93 -102 -103 -102 -7 0
-12 -4 -12 -8 0 -12 -59 -44 -69 -37 -5 3 -13 0 -17 -6 -5 -8 -3 -9 6 -4 9 5
11 4 6 -4 -4 -7 -13 -10 -19 -8 -7 2 -26 -2 -43 -9 -17 -7 -39 -11 -50 -10
-10 2 -22 -2 -26 -8 -5 -7 -8 -7 -8 3 0 11 -3 11 -15 1 -12 -10 -15 -10 -15 0
0 10 -3 10 -15 0 -12 -10 -15 -10 -16 1 0 10 -2 11 -6 1 -2 -6 -10 -9 -16 -5
-6 4 -22 8 -35 9 -14 2 -32 6 -41 10 -19 8 -39 14 -63 16 -9 1 -15 5 -13 9 3
3 -11 15 -30 25 -19 10 -35 22 -35 26 0 5 -4 8 -9 8 -11 0 -73 60 -63 60 4 0
-1 5 -10 11 -10 5 -18 15 -18 21 0 6 -8 17 -17 25 -11 9 -12 12 -3 7 8 -4 5 4
-8 18 -12 13 -19 28 -15 32 4 4 1 11 -6 15 -7 5 -13 20 -13 35 0 14 -4 24 -8
21 -4 -2 -6 11 -5 30 1 19 -2 32 -6 29 -4 -2 -8 4 -8 13 0 10 -1 34 -1 53 -2
43 2 63 15 72 6 5 5 8 -2 8 -7 0 -13 5 -13 11 0 6 7 8 16 5 14 -5 15 -4 5 8
-9 11 -10 20 -2 35 6 11 11 29 11 40 0 12 5 21 10 21 6 0 9 3 8 8 -6 18 45
115 55 105 4 -3 7 1 7 10 0 9 7 17 15 17 8 0 14 3 13 8 -4 10 49 61 56 54 3
-3 6 1 6 8 0 7 3 11 6 7 6 -5 18 2 47 29 9 8 15 7 24 -5 10 -13 12 -13 8 -1
-3 9 5 19 20 27 15 6 22 7 19 1 -4 -6 5 -3 18 6 14 9 28 13 31 9 4 -3 7 -1 7
6 0 7 5 9 10 6 6 -4 7 -12 3 -18z m1092 4 c-2 -4 2 -8 10 -8 8 0 12 4 9 9 -3
4 6 4 20 -2 14 -5 26 -6 26 -3 0 4 5 2 12 -5 7 -7 20 -12 30 -12 10 0 18 -4
18 -10 0 -5 6 -9 13 -7 6 1 11 -5 9 -13 -2 -8 0 -12 3 -8 9 9 65 -19 65 -32 0
-6 5 -10 11 -10 19 0 107 -105 101 -122 -1 -4 2 -8 8 -8 5 0 10 -7 10 -15 0
-8 5 -15 10 -15 6 0 9 -3 8 -7 -2 -11 13 -66 22 -78 4 -5 6 -18 5 -28 -2 -10
0 -30 5 -46 4 -15 4 -35 -2 -44 -6 -12 -5 -17 4 -17 9 0 9 -3 -2 -10 -10 -6
-11 -10 -3 -10 9 0 10 -7 4 -22 -4 -13 -7 -33 -6 -46 1 -13 -2 -25 -7 -28 -4
-3 -8 -14 -8 -25 0 -11 -4 -18 -8 -15 -4 2 -9 -4 -10 -15 -4 -43 -6 -49 -14
-49 -4 0 -8 -7 -8 -15 0 -8 -5 -15 -11 -15 -5 0 -7 -5 -4 -10 3 -6 -1 -13 -9
-16 -9 -3 -16 -12 -16 -20 0 -8 -7 -14 -17 -14 -9 0 -14 -3 -10 -6 6 -6 -68
-79 -81 -79 -4 0 -22 -10 -39 -23 -18 -13 -37 -20 -43 -17 -5 3 -10 1 -10 -6
0 -8 -4 -8 -16 1 -12 11 -15 11 -12 1 4 -18 -20 -22 -129 -24 -57 0 -97 3
-106 11 -7 6 -17 9 -20 5 -4 -3 -7 -1 -7 6 0 7 -5 9 -10 6 -12 -7 -116 50
-127 69 -5 7 -18 18 -31 25 -12 7 -20 16 -17 20 3 5 -2 12 -11 15 -8 3 -12 10
-9 16 3 5 -1 10 -10 10 -9 0 -13 5 -10 10 3 6 2 10 -3 10 -7 0 -30 37 -37 60
-1 3 -7 18 -14 35 -7 16 -10 37 -8 47 3 10 1 16 -4 12 -9 -5 -10 -2 -13 46 0
14 -5 31 -9 38 -5 7 -4 19 3 27 8 10 9 15 2 15 -6 0 -9 7 -6 15 4 8 11 12 18
8 8 -5 8 -3 0 8 -18 22 -2 110 19 105 6 -1 9 -1 5 1 -12 7 -9 43 2 43 6 0 10
8 8 18 -2 10 2 16 10 14 8 -1 11 2 7 7 -3 6 6 27 19 48 42 63 54 75 67 67 7
-4 10 -3 6 3 -10 15 49 67 68 59 9 -3 13 -2 10 4 -3 5 12 16 32 25 21 9 46 21
57 27 13 7 16 6 11 -2 -4 -7 3 -5 16 3 13 8 41 14 61 13 21 -1 43 1 49 5 14 8
51 0 44 -10z m-531 -693 c-3 -4 0 -8 6 -8 6 0 9 -4 5 -10 -3 -5 3 -18 13 -28
10 -10 22 -25 26 -33 20 -40 33 -58 39 -52 4 3 7 2 7 -4 0 -6 16 -27 35 -47
19 -21 35 -35 35 -31 0 3 10 -3 22 -15 12 -11 26 -20 30 -20 5 0 7 -4 4 -8 -8
-14 -330 -12 -338 2 -6 8 -8 7 -8 -1 0 -8 -13 -13 -32 -13 -25 0 -29 3 -18 10
9 6 10 10 3 10 -6 0 -14 -4 -17 -9 -7 -11 -55 -11 -62 0 -3 5 -2 9 3 8 20 -3
53 15 58 32 4 11 10 17 15 14 5 -3 11 4 15 15 4 11 10 18 15 15 4 -3 11 2 14
11 3 9 11 12 18 8 7 -4 10 -4 6 1 -11 11 11 47 24 39 7 -4 8 -3 4 5 -4 6 -1
18 6 26 30 33 38 45 32 45 -3 0 -1 6 5 13 6 8 8 17 4 20 -3 4 -1 7 5 7 7 0 11
3 11 8 -3 19 2 26 10 12 6 -8 7 -18 5 -22z m-1419 -328 c-4 -6 -11 -7 -17 -4
-7 5 -8 2 -4 -5 6 -9 13 -8 27 5 10 9 19 13 20 8 5 -53 2 -899 -3 -907 -4 -7
-8 -9 -8 -5 0 4 -12 3 -26 -2 -22 -9 -25 -8 -20 5 3 8 0 15 -6 15 -7 0 -7 4 1
13 6 8 8 17 4 20 -10 11 -9 77 2 78 6 0 4 3 -2 6 -9 3 -10 10 -3 24 8 14 7 19
-1 19 -8 0 -7 5 2 17 12 14 12 15 1 9 -11 -7 -12 -4 -3 13 9 16 9 21 0 21 -9
0 -9 3 0 14 9 11 9 16 0 21 -8 6 -7 10 2 16 8 5 10 9 4 9 -11 0 -12 290 -1
309 4 6 3 11 -2 11 -5 0 -9 7 -9 15 0 8 4 15 9 15 5 0 4 10 -3 21 -9 17 -8 20
3 13 11 -6 11 -5 -1 9 -9 12 -10 17 -2 17 9 0 9 5 0 21 -9 17 -8 20 3 13 11
-6 11 -5 -1 9 -9 12 -10 17 -2 17 8 0 9 6 3 18 -12 25 -8 47 8 44 12 -3 12 -1
0 15 -25 29 -15 73 16 73 8 0 12 -5 9 -10z m2177 -10 c-2 -8 3 -10 13 -6 12 4
16 0 15 -17 -1 -12 -1 -24 0 -27 6 -13 4 -262 -2 -266 -4 -3 -4 -15 0 -27 9
-27 9 -48 -1 -64 -5 -7 -5 -13 0 -13 4 0 8 -22 8 -50 0 -27 -4 -50 -8 -50 -5
0 -5 -5 -1 -12 10 -16 12 -258 3 -264 -4 -2 -4 -17 0 -32 6 -19 4 -34 -5 -47
-14 -19 -38 -19 -767 -20 -413 0 -765 2 -782 5 -20 4 -30 12 -29 23 1 9 -1 17
-5 17 -3 0 -6 54 -6 119 0 77 4 117 10 113 6 -4 6 -1 0 9 -6 9 -10 124 -9 308
0 251 3 295 16 305 23 17 1554 14 1550 -4z m-2061 -24 c5 3 12 -2 15 -10 3 -9
10 -13 15 -10 5 3 9 -1 9 -8 0 -8 10 -15 22 -15 13 -1 24 -7 26 -13 2 -5 8
-10 13 -10 6 0 19 -9 31 -20 12 -11 28 -20 35 -20 7 0 13 -4 13 -9 0 -5 14
-14 30 -21 17 -7 30 -17 30 -22 0 -5 3 -7 8 -5 9 5 42 -30 35 -37 -4 -3 -1 -6
5 -6 8 0 9 -7 2 -25 -5 -14 -6 -25 -2 -25 4 0 7 -29 7 -64 0 -36 -4 -62 -9
-58 -5 3 -6 0 -2 -6 10 -16 14 -72 6 -72 -4 0 -5 -15 0 -33 4 -18 3 -43 -1
-55 -5 -12 -5 -22 0 -22 4 0 7 -10 5 -22 -1 -13 -3 -32 -3 -43 -1 -13 -22 -33
-57 -55 -31 -19 -67 -42 -80 -50 -13 -8 -51 -33 -86 -54 -35 -22 -64 -43 -66
-48 -5 -10 -32 17 -32 32 0 6 5 8 12 4 7 -5 8 -3 4 5 -12 19 -16 92 -5 85 5
-3 4 7 -3 21 -10 22 -9 28 3 36 8 5 9 9 3 9 -13 0 -12 38 0 59 6 9 5 12 -2 7
-11 -7 -11 39 1 50 4 4 3 12 0 18 -12 18 -14 48 -3 41 6 -4 5 5 -2 20 -10 22
-9 28 3 36 8 5 9 9 3 9 -13 0 -12 38 0 59 6 9 5 12 -2 7 -11 -7 -11 39 1 50 4
4 3 12 0 18 -12 18 -14 48 -3 41 6 -4 5 5 -2 20 -10 22 -9 28 3 36 8 5 9 9 3
9 -13 0 -12 38 0 59 6 9 5 12 -2 7 -12 -7 -11 32 1 51 4 6 3 14 -2 17 -5 4 -8
14 -6 24 5 27 6 28 12 14 2 -6 9 -10 14 -6z m391 -208 c2 6 13 6 27 1 18 -7
21 -12 12 -23 -9 -11 -9 -15 1 -18 10 -4 10 -8 -1 -21 -7 -10 -9 -17 -4 -17 5
0 9 -22 9 -50 0 -27 -5 -50 -10 -50 -6 0 -5 -5 2 -12 15 -15 16 -32 1 -22 -7
4 -6 -2 1 -17 10 -18 10 -24 1 -27 -9 -3 -9 -8 1 -20 11 -13 11 -14 -1 -7 -11
6 -12 5 -5 -6 12 -19 13 -89 1 -89 -5 0 -5 -6 1 -13 19 -22 -13 -45 -34 -25
-4 4 -13 3 -21 -3 -10 -9 -13 -8 -13 0 0 7 -4 9 -10 6 -15 -9 -12 2 6 19 14
14 14 16 0 16 -10 0 -13 6 -10 15 4 8 10 13 14 10 5 -3 12 0 16 6 4 7 3 9 -3
6 -6 -4 -16 0 -22 7 -10 11 -8 17 6 25 14 8 14 10 3 11 -16 0 -20 56 -5 80 5
8 4 15 -1 17 -7 2 -9 49 -5 107 1 5 7 5 14 0 7 -5 6 -2 -3 6 -13 13 -17 31
-10 53 4 13 7 27 9 38 1 8 5 8 15 0 8 -7 16 -8 18 -3z"/>
<path d="M1405 3731 c-11 -5 -23 -7 -27 -4 -5 2 -8 0 -8 -6 0 -5 -9 -13 -21
-16 -11 -4 -18 -9 -15 -12 2 -3 -4 -14 -15 -26 -20 -21 -21 -24 -23 -67 -1
-14 -5 -31 -9 -37 -5 -8 -4 -13 2 -13 6 0 11 -9 11 -20 0 -11 5 -20 11 -20 5
0 7 -4 4 -10 -3 -5 -1 -10 4 -10 6 0 11 -7 11 -17 0 -9 3 -13 7 -10 10 10 34
-14 26 -27 -3 -6 -3 -8 2 -4 4 4 17 3 28 -3 15 -8 18 -8 12 1 -6 9 -2 9 14 1
12 -7 25 -9 30 -6 5 3 12 -1 14 -7 3 -8 6 -6 6 5 1 9 4 16 9 15 21 -4 86 44
75 56 -4 3 -1 6 6 6 7 0 11 6 8 14 -3 8 0 16 6 19 7 3 13 17 15 31 1 19 -2 25
-11 20 -9 -6 -9 -5 0 7 19 24 -22 97 -73 125 -30 17 -76 24 -99 15z m55 -73
c0 -5 4 -7 9 -4 4 3 17 -2 27 -12 21 -19 32 -102 14 -102 -6 0 -9 -4 -5 -9 6
-10 -34 -37 -47 -33 -5 1 -8 -2 -8 -7 0 -5 -15 -4 -35 2 -19 6 -33 12 -31 15
3 2 -3 13 -13 23 -40 43 1 138 59 137 16 -1 30 -5 30 -10z"/>
<path d="M1125 3446 c-32 -12 -72 -46 -67 -58 1 -5 -5 -8 -13 -8 -9 0 -12 -6
-8 -17 5 -11 3 -14 -6 -8 -10 6 -11 3 -1 -15 7 -12 8 -20 3 -17 -6 4 -10 -11
-10 -33 0 -24 4 -37 10 -33 6 4 8 -2 5 -15 -4 -12 -2 -20 3 -16 5 3 9 1 9 -4
0 -14 36 -52 49 -52 7 0 10 -4 7 -8 -2 -4 3 -8 12 -8 26 -1 46 -8 54 -19 4 -5
10 -2 13 7 4 9 13 14 21 11 8 -3 14 1 14 8 0 11 3 11 10 -1 6 -9 10 -10 10 -3
0 6 9 15 20 18 11 4 18 11 15 16 -4 5 2 13 12 17 16 6 21 18 25 59 1 7 5 10
10 7 4 -3 8 -1 8 5 0 5 -4 12 -8 15 -4 2 -9 19 -10 38 -2 18 -7 35 -12 36 -6
2 -10 8 -10 13 0 6 -11 21 -25 35 -14 14 -25 22 -25 18 0 -3 -6 -1 -14 5 -20
17 -66 20 -101 7z m39 -67 c-4 -8 0 -8 15 0 14 8 21 8 21 1 0 -5 8 -10 17 -10
9 0 13 -3 10 -7 -4 -3 1 -11 10 -18 19 -14 20 -74 1 -86 -7 -5 -8 -9 -3 -9 6
0 -5 -10 -23 -21 -26 -17 -35 -19 -47 -9 -12 10 -15 10 -15 -1 0 -7 -10 -3
-25 11 -13 12 -22 27 -19 31 3 5 1 9 -4 9 -14 0 -12 51 4 82 8 15 24 29 36 31
13 2 24 5 26 6 2 0 0 -4 -4 -10z"/>
<path d="M1657 3448 c-1 -3 -9 -8 -17 -10 -8 -2 -21 -11 -28 -21 -7 -9 -18
-15 -23 -11 -5 3 -9 2 -8 -3 3 -18 -2 -32 -17 -47 -10 -10 -11 -16 -3 -16 8 0
9 -4 0 -13 -8 -10 -7 -17 1 -25 9 -9 9 -12 -1 -12 -11 0 -11 -3 0 -17 12 -14
12 -15 0 -9 -9 6 -8 1 3 -16 9 -14 13 -28 9 -33 -5 -4 -3 -6 2 -4 10 5 66 -47
59 -53 -3 -4 22 -6 89 -8 32 -1 43 5 78 44 23 25 46 43 52 39 6 -3 7 -1 3 6
-4 6 -13 8 -19 4 -7 -4 -6 0 2 10 7 9 10 17 5 17 -4 0 1 7 12 15 19 15 19 15
-1 8 -16 -6 -18 -4 -8 8 9 11 6 25 -14 66 -14 29 -30 50 -34 47 -5 -3 -9 -1
-9 4 0 22 -125 51 -133 30z m17 -70 c-6 -10 -5 -10 7 -1 17 14 55 10 52 -5 -1
-5 5 -9 14 -8 24 2 42 -52 31 -91 -9 -34 -68 -78 -68 -51 0 9 -3 8 -10 -2 -8
-12 -12 -13 -19 -2 -4 8 -12 14 -17 14 -5 0 -8 4 -6 10 1 5 -2 7 -7 4 -16 -10
-29 18 -26 57 2 23 12 48 26 63 24 26 35 31 23 12z"/>
<path d="M1425 3398 c-4 -10 -10 -16 -14 -14 -16 10 -54 -33 -55 -63 0 -17 -5
-31 -10 -31 -5 0 -3 -7 4 -15 7 -8 9 -15 4 -15 -5 -1 2 -7 16 -15 14 -7 24
-17 23 -22 -2 -4 2 -9 7 -9 6 -1 11 -2 13 -4 9 -7 37 -6 37 1 0 6 4 8 10 4 17
-11 50 19 56 52 3 18 11 30 16 27 6 -4 6 2 -1 13 -6 11 -9 22 -7 24 1 2 -12
19 -31 37 -18 19 -33 28 -33 21 0 -7 -6 -5 -14 7 -14 18 -15 18 -21 2z m28
-93 c7 -18 -6 -27 -27 -19 -17 7 -20 16 -9 27 11 12 31 8 36 -8z"/>
<path d="M1815 3200 c-3 -6 1 -7 9 -4 18 7 21 14 7 14 -6 0 -13 -4 -16 -10z"/>
<path d="M1474 3175 c-5 -11 -10 -13 -19 -5 -8 7 -21 7 -38 1 -14 -5 -27 -8
-29 -5 -9 9 -85 -73 -82 -89 1 -9 -2 -17 -8 -17 -6 0 -8 -6 -5 -14 3 -7 0 -19
-6 -25 -8 -8 -8 -11 2 -11 7 0 9 -5 6 -10 -4 -6 -1 -17 5 -25 7 -8 9 -15 5
-15 -4 0 -2 -6 4 -13 6 -8 8 -17 4 -20 -3 -4 -1 -7 5 -7 6 0 22 -11 35 -24 13
-13 37 -26 53 -28 16 -1 32 -7 36 -13 5 -6 8 -5 8 3 0 6 8 12 18 12 10 0 24 6
31 13 11 10 13 9 6 -3 -4 -8 7 1 24 20 17 19 34 43 37 53 3 10 10 14 17 10 8
-5 8 -2 0 9 -7 8 -10 18 -6 22 11 11 11 56 0 56 -5 0 -7 9 -4 20 3 11 1 20 -3
20 -5 0 -17 14 -27 30 -9 17 -23 30 -30 30 -7 0 -13 5 -13 11 0 5 -5 7 -12 3
-8 -5 -9 -2 -5 9 3 10 4 17 1 17 -2 0 -7 -7 -10 -15z m-4 -76 c0 -5 5 -9 11
-9 21 0 41 -31 36 -55 -2 -14 0 -25 4 -25 12 0 -2 -33 -18 -43 -7 -5 -11 -12
-8 -18 6 -9 1 -11 -27 -13 -7 -1 -16 -5 -19 -9 -4 -5 -24 0 -45 12 -22 11 -34
20 -29 21 6 0 4 4 -3 9 -7 4 -14 14 -15 22 -2 8 -7 20 -11 28 -7 11 -5 13 8 8
14 -6 15 -3 6 13 -8 15 -8 20 1 20 7 0 10 3 6 6 -3 4 3 14 14 23 22 18 89 26
89 10z"/>
<path d="M1400 3086 c0 -2 8 -10 18 -17 15 -13 16 -12 3 4 -13 16 -21 21 -21
13z"/>
<path d="M1275 3161 c-3 -5 -2 -12 3 -15 5 -3 9 1 9 9 0 17 -3 19 -12 6z"/>
<path d="M2336 3762 c-3 -5 1 -9 9 -9 8 0 12 4 9 9 -3 4 -7 8 -9 8 -2 0 -6 -4
-9 -8z"/>
<path d="M2376 3738 c-9 -5 -21 -6 -28 -2 -6 4 -8 3 -5 -3 7 -10 -20 -28 -35
-25 -5 1 -7 -1 -6 -5 1 -5 -6 -20 -16 -35 -21 -33 -29 -117 -13 -137 9 -12 9
-13 -1 -7 -7 4 -1 -10 15 -33 15 -22 34 -40 41 -41 7 0 11 -4 8 -8 -2 -4 7 -9
22 -10 15 -1 28 -6 30 -11 3 -10 70 6 89 21 7 5 17 7 23 3 6 -4 9 -1 8 7 -2 7
3 12 10 10 8 -1 11 2 7 8 -3 5 1 13 9 16 9 3 14 10 11 14 -3 5 1 15 9 23 11
11 12 17 3 26 -8 8 -8 11 2 11 7 0 9 5 6 10 -3 6 -1 10 5 10 6 0 4 7 -5 16
-13 14 -14 19 -3 25 8 5 9 9 2 9 -6 0 -17 14 -24 30 -7 17 -17 30 -22 30 -5 0
-6 4 -3 10 3 6 -1 7 -9 4 -10 -4 -16 -1 -16 9 0 8 -7 18 -16 21 -10 4 -13 2
-8 -7 6 -8 3 -8 -9 1 -20 17 -60 22 -81 10z m58 -80 c-3 -4 3 -8 14 -8 17 0
33 -21 45 -61 5 -16 -26 -78 -46 -91 -6 -4 -20 -2 -30 4 -14 7 -17 7 -13 -1
12 -18 -5 -12 -41 15 -33 25 -44 54 -20 54 9 0 9 2 0 8 -20 13 -8 46 26 69 30
20 75 28 65 11z"/>
<path d="M2148 3464 c-3 -2 -17 -7 -32 -10 -33 -6 -88 -39 -80 -47 4 -4 -1 -9
-10 -13 -9 -3 -16 -12 -16 -20 0 -8 -4 -14 -9 -14 -4 0 -7 -14 -5 -31 2 -18 0
-28 -6 -24 -6 4 -6 -3 0 -20 6 -15 7 -31 4 -37 -4 -7 -2 -8 4 -4 7 4 12 1 12
-8 0 -20 67 -87 83 -83 6 1 11 -4 9 -11 -2 -10 2 -10 18 -2 15 8 20 8 20 -1 0
-8 4 -9 13 0 10 8 17 7 27 -2 10 -9 11 -9 6 1 -6 11 5 17 27 13 4 -1 10 6 13
14 3 8 10 12 15 9 5 -3 9 2 9 10 0 9 5 16 11 16 5 0 7 5 4 10 -3 6 0 10 8 10
16 0 17 7 17 70 0 72 -3 90 -18 90 -7 0 -11 3 -9 8 6 11 -59 68 -72 64 -6 -2
-18 1 -25 7 -7 6 -15 8 -18 5z m24 -93 c-1 -7 2 -10 8 -6 13 8 42 -14 34 -26
-3 -5 -1 -9 5 -9 17 0 5 -66 -16 -87 -26 -26 -51 -35 -59 -21 -5 7 -8 7 -13
-1 -4 -6 -18 0 -37 17 -26 22 -31 33 -27 62 5 49 11 62 23 55 6 -4 9 -1 8 7
-2 7 3 12 10 11 6 -2 12 2 12 7 0 6 12 9 28 7 15 -3 26 -10 24 -16z"/>
<path d="M2666 3458 c3 -5 -6 -7 -20 -4 -14 3 -26 0 -26 -5 0 -6 -4 -8 -9 -5
-5 3 -17 -5 -27 -19 -10 -13 -23 -21 -28 -18 -6 4 -8 3 -4 -2 4 -4 2 -17 -4
-29 -7 -11 -11 -24 -10 -28 1 -5 -2 -8 -6 -8 -5 0 -8 -15 -7 -32 1 -18 -2 -39
-8 -46 -8 -10 -7 -12 4 -10 8 2 13 -3 12 -9 -2 -7 2 -13 7 -13 6 0 10 -5 10
-11 0 -13 38 -49 52 -49 5 0 6 -5 2 -12 -4 -6 -3 -8 4 -4 6 3 13 2 17 -3 3 -6
12 -8 20 -4 8 3 15 1 15 -4 0 -5 10 -9 23 -8 12 2 21 8 19 15 -3 11 0 11 12 0
12 -9 16 -9 16 -1 0 8 8 10 23 6 15 -4 18 -3 8 3 -9 7 -10 12 -2 16 6 4 11 5
11 2 0 -3 8 2 18 12 11 9 17 21 14 26 -3 5 3 6 13 2 14 -5 16 -4 7 7 -7 8 -8
17 -4 21 10 10 10 116 0 116 -4 0 -8 7 -8 15 0 8 -4 15 -10 15 -5 0 -10 6 -10
13 0 14 -62 50 -85 50 -8 0 -15 3 -15 7 0 4 -7 7 -15 7 -8 0 -12 -4 -9 -9z
m64 -99 c19 -17 28 -27 20 -23 -12 6 -13 5 -3 -7 31 -38 -10 -107 -68 -112
-35 -3 -44 2 -72 42 -13 20 -14 28 -4 40 10 12 9 13 -1 7 -11 -7 -12 -4 -3 11
6 11 7 23 4 27 -3 3 1 6 11 6 9 0 15 4 11 10 -4 7 31 23 65 29 3 1 21 -13 40
-30z"/>
<path d="M2376 3389 c-21 -11 -41 -29 -43 -40 -3 -10 -9 -19 -12 -19 -4 0 -8
-7 -8 -15 0 -8 5 -15 11 -15 6 0 4 -5 -4 -11 -11 -8 -12 -12 -2 -16 6 -2 12
-14 12 -24 0 -11 5 -17 10 -14 6 3 10 0 10 -8 0 -7 6 -14 13 -15 75 -9 86 -9
91 5 3 8 10 11 16 8 5 -3 10 1 10 10 0 10 5 13 13 9 6 -4 9 -4 5 1 -4 4 -2 15
5 23 9 13 9 14 0 8 -9 -5 -11 -2 -7 8 3 9 11 13 18 9 7 -4 7 -1 -1 9 -7 8 -10
18 -6 21 3 4 1 7 -6 7 -8 0 -11 8 -8 20 3 10 2 18 -2 17 -12 -4 -51 30 -43 39
4 4 -2 2 -12 -6 -13 -10 -17 -10 -12 -2 10 17 -3 15 -48 -9z m49 -93 c2 -19
-1 -23 -13 -19 -32 11 -33 15 -15 33 21 21 25 19 28 -14z"/>
<path d="M2390 3180 c0 -7 -8 -10 -19 -7 -12 3 -27 -4 -39 -17 -10 -11 -27
-25 -36 -31 -9 -5 -18 -20 -19 -32 -1 -13 -4 -23 -8 -23 -12 0 -3 -103 11
-130 15 -27 40 -55 40 -44 0 4 8 -3 19 -14 10 -12 21 -19 25 -15 3 3 6 1 6 -7
0 -10 3 -10 15 0 9 7 15 8 15 2 0 -15 33 -9 48 8 10 13 11 12 6 -5 -5 -19 -5
-19 9 -2 8 9 18 17 23 17 11 0 57 57 69 85 11 29 13 55 3 61 -4 3 -6 9 -3 14
9 14 -28 90 -46 95 -10 3 -20 12 -23 20 -3 8 -17 15 -31 15 -14 0 -25 5 -25
10 0 6 -5 10 -11 10 -5 0 -7 -6 -3 -12 5 -9 2 -9 -9 1 -13 10 -17 10 -17 1z
m40 -81 c0 -5 4 -8 8 -5 14 8 50 -40 55 -73 3 -17 1 -31 -4 -31 -5 0 -9 -4 -9
-10 0 -24 -40 -49 -74 -47 -20 1 -36 7 -36 12 0 6 -9 16 -20 23 -22 13 -27 42
-7 42 8 0 8 3 -2 9 -13 8 -13 12 0 27 12 16 12 17 -1 9 -13 -8 -13 -6 -1 8 7
9 17 14 22 11 5 -3 8 0 7 7 -2 7 8 16 22 20 36 10 40 10 40 -2z"/>
<path d="M993 2375 c0 -8 4 -12 9 -9 5 3 6 10 3 15 -9 13 -12 11 -12 -6z"/>
<path d="M2873 3005 c0 -8 4 -12 9 -9 5 3 6 10 3 15 -9 13 -12 11 -12 -6z"/>
<path d="M2880 2817 c-15 -12 -20 -93 -7 -114 4 -6 1 -14 -5 -16 -10 -4 -10
-8 1 -15 11 -8 10 -12 -5 -21 -18 -10 -18 -10 1 -11 17 0 17 -2 5 -10 -13 -8
-13 -11 -1 -19 11 -7 10 -11 -5 -20 -12 -6 -14 -11 -6 -11 8 0 12 -6 9 -12 -2
-7 0 -21 5 -32 7 -12 7 -16 0 -12 -6 3 -13 2 -16 -3 -10 -15 45 -27 121 -27
64 1 73 -1 77 -19 3 -11 -1 -26 -9 -35 -11 -10 -15 -11 -15 -2 0 10 -5 10 -20
2 -14 -8 -20 -8 -20 0 0 8 -6 8 -20 0 -14 -8 -20 -8 -20 0 0 6 -5 8 -12 4 -7
-5 -25 -7 -40 -6 -29 2 -30 0 -30 -78 0 -50 -1 -50 68 -50 49 0 63 -3 58 -12
-6 -10 -5 -10 7 -1 12 10 18 10 29 0 10 -9 11 -9 6 1 -4 6 -3 12 1 12 5 0 15
-6 22 -12 11 -10 13 -10 7 0 -4 7 -2 12 6 12 8 0 20 -6 27 -12 11 -11 12 -10
6 1 -6 11 -1 13 23 9 20 -3 33 0 36 9 3 7 0 13 -7 13 -7 0 -8 3 -2 8 13 9 15
42 3 42 -6 0 -5 6 2 15 10 12 10 15 -1 15 -9 0 -10 3 -4 8 13 9 15 42 3 42 -6
0 -5 6 2 15 10 12 10 15 -1 15 -9 0 -10 3 -4 8 11 8 16 42 6 42 -3 0 -6 13 -6
29 0 17 4 27 10 23 6 -3 4 1 -2 10 -7 8 -10 18 -6 21 3 4 -38 7 -92 7 -90 0
-96 1 -84 17 10 11 10 14 2 9 -9 -5 -13 -1 -13 13 0 18 6 19 98 18 92 -2 98
-1 98 18 -1 11 -5 23 -11 27 -6 5 -5 8 2 8 7 0 10 7 6 16 -3 9 -7 25 -8 37 -1
12 -3 26 -4 30 0 4 -10 3 -21 -3 -11 -6 -20 -7 -20 -2 0 5 -7 9 -15 9 -8 0
-15 -5 -15 -11 0 -7 -3 -7 -8 -1 -8 12 -142 14 -142 2 0 -4 -8 -3 -18 2 -11 6
-22 5 -32 -2z"/>
<path d="M3213 2822 c-16 -2 -23 -11 -24 -25 -4 -108 0 -479 5 -484 4 -4 23
-6 42 -5 27 2 34 -1 28 -10 -5 -10 -4 -10 6 -1 11 10 17 10 29 0 12 -9 13 -9
7 1 -4 7 -2 12 6 12 8 0 20 -6 27 -12 11 -11 12 -10 7 0 -6 10 4 13 43 11 28
-2 51 -7 51 -13 0 -5 7 -1 15 10 10 13 14 15 15 5 0 -8 3 -11 7 -7 4 3 8 33 8
66 2 45 -1 60 -11 60 -8 0 -14 5 -14 11 0 8 -5 8 -15 -1 -11 -9 -15 -9 -15 -1
0 8 -5 9 -19 1 -13 -7 -22 -7 -26 0 -4 7 -13 7 -26 0 -13 -8 -19 -7 -19 0 0 7
-7 7 -21 -1 -15 -8 -19 -8 -15 0 4 6 3 11 -3 11 -6 0 -10 25 -10 60 1 38 5 60
13 60 8 0 8 2 0 8 -18 12 -16 102 2 109 9 3 20 0 25 -8 6 -10 9 -10 9 -1 0 6
9 12 21 12 12 0 17 -4 14 -11 -4 -6 3 -5 14 3 18 11 23 11 31 -2 6 -10 10 -11
10 -2 0 6 9 12 20 12 11 0 20 -5 20 -12 0 -6 3 -8 7 -4 4 4 7 38 8 76 l1 68
-36 5 c-19 2 -37 0 -40 -4 -3 -4 -12 -4 -20 1 -9 5 -19 5 -27 -2 -8 -6 -13 -6
-13 -1 0 5 -7 10 -15 10 -8 0 -15 -5 -15 -11 0 -7 -3 -7 -8 -1 -7 10 -56 13
-99 7z"/>
<path d="M3535 2816 c-21 -15 -29 -81 -13 -103 5 -6 5 -14 -1 -17 -6 -4 -7
-14 -4 -23 5 -12 3 -14 -8 -9 -8 4 -6 1 4 -7 12 -10 14 -17 7 -22 -6 -4 -7
-12 -1 -22 5 -9 6 -28 2 -42 -8 -33 -7 -53 2 -68 5 -7 4 -13 -1 -13 -10 0 -9
-30 2 -48 4 -6 3 -12 -1 -12 -10 0 -10 -41 0 -57 4 -7 3 -14 -2 -18 -17 -10
-8 -41 13 -43 10 0 23 -7 27 -14 6 -9 9 -9 9 -1 0 6 12 13 27 15 26 3 44 38
20 38 -8 0 -7 3 1 9 8 4 14 12 14 16 0 4 -6 12 -14 16 -10 7 -11 11 0 17 9 6
10 16 3 34 -13 35 1 51 47 53 37 2 41 0 44 -27 3 -15 1 -28 -4 -28 -5 0 -6 -6
-1 -12 4 -7 7 -35 8 -63 0 -27 3 -51 8 -52 4 -2 27 -3 51 -3 41 0 44 2 39 23
-4 18 -3 19 6 7 7 -9 11 -10 11 -3 0 6 -5 15 -10 18 -8 5 -7 12 2 23 7 9 9 13
3 10 -6 -4 -11 13 -13 40 -2 34 0 43 8 32 6 -9 10 -10 10 -3 0 6 -5 15 -10 18
-8 5 -7 12 2 23 7 9 8 13 3 10 -13 -8 -14 71 -2 90 5 7 3 12 -4 12 -8 0 -7 5
2 17 10 11 10 14 2 9 -7 -4 -13 -3 -13 1 0 5 6 15 13 22 6 8 7 11 1 8 -6 -3
-11 0 -11 8 0 8 5 11 11 8 6 -3 5 0 -1 8 -7 7 -13 24 -13 37 0 16 4 21 13 16
9 -6 9 -5 0 7 -7 9 -11 25 -8 37 2 14 -3 25 -15 32 -25 13 -33 13 -24 -2 6
-10 4 -10 -7 -2 -27 21 -64 -4 -61 -41 6 -66 5 -125 -1 -125 -5 0 -5 -4 -2
-10 4 -6 -11 -10 -38 -10 l-44 0 1 76 c1 42 -2 78 -7 81 -4 2 -4 9 -1 15 10
15 -18 29 -33 16 -9 -7 -13 -7 -13 1 0 15 -12 14 -35 -3z"/>
<path d="M3937 2818 c-6 -4 -8 -8 -4 -8 4 0 -5 -12 -20 -27 -16 -16 -31 -32
-33 -38 -3 -5 -9 -8 -15 -7 -5 2 -7 0 -2 -4 4 -4 1 -17 -6 -28 -7 -12 -13 -43
-12 -71 0 -27 -4 -53 -10 -57 -6 -5 -5 -8 4 -8 11 0 11 -3 0 -16 -8 -9 -9 -18
-3 -22 12 -9 12 -82 0 -101 -5 -7 -5 -16 1 -20 5 -3 9 -27 8 -53 -1 -53 -3
-51 74 -48 34 1 41 -1 35 -12 -6 -10 -5 -11 7 -1 12 10 18 10 29 0 10 -9 11
-9 6 1 -5 8 1 12 21 12 16 0 35 -6 43 -12 12 -11 12 -10 0 6 -13 16 -12 20 9
37 13 11 20 19 17 19 -4 0 2 10 14 22 11 12 20 26 20 30 0 5 4 7 9 3 5 -3 13
0 17 6 4 8 3 9 -4 5 -16 -10 -15 17 0 32 7 7 8 12 2 12 -12 0 -12 29 0 48 4 7
2 12 -6 12 -9 0 -9 3 2 10 8 5 10 10 4 10 -12 0 -12 29 0 48 4 7 2 12 -6 12
-9 0 -9 3 2 10 12 8 12 10 1 10 -11 0 -11 3 -1 15 10 12 10 15 0 15 -9 0 -9 4
1 17 12 15 12 16 -1 8 -13 -8 -13 -7 -1 8 7 9 9 17 4 17 -11 0 -11 29 1 48 4
7 2 12 -4 12 -7 0 -9 8 -5 20 5 15 1 22 -17 29 -14 5 -28 5 -35 -1 -8 -6 -13
-7 -13 -1 0 5 -7 10 -15 10 -8 0 -15 -5 -15 -11 0 -7 -3 -7 -8 -1 -8 12 -77
14 -95 3z m44 -140 c0 -10 2 -10 6 0 5 13 42 17 44 5 6 -49 2 -236 -5 -241
-15 -9 -56 -9 -56 0 0 4 -6 8 -12 8 -11 0 -16 109 -9 223 1 19 31 24 32 5z"/>
<path d="M4261 2810 c-36 -37 -61 -71 -61 -81 0 -5 -4 -8 -9 -5 -5 3 -12 -2
-16 -12 -11 -25 -12 -293 -2 -316 6 -12 5 -16 -1 -12 -6 3 -13 2 -17 -4 -3 -5
-1 -10 5 -10 6 0 9 -4 6 -9 -4 -5 0 -12 6 -14 9 -4 9 -6 1 -6 -6 -1 -9 -9 -7
-18 4 -16 17 -18 102 -16 91 1 97 3 115 27 10 14 23 24 28 21 5 -4 6 2 2 11
-4 12 -3 15 5 10 7 -4 12 -1 12 8 0 9 5 16 10 16 6 0 9 3 8 8 0 4 2 14 5 22
10 22 14 190 6 228 -5 24 -3 34 10 42 9 5 11 10 4 10 -7 0 -12 17 -12 43 -1
79 0 77 -26 67 -15 -6 -25 -5 -27 1 -2 5 -15 6 -36 0 -21 -7 -32 -6 -32 1 0 6
-6 6 -15 -2 -8 -7 -15 -8 -15 -3 0 16 -32 11 -49 -7z m96 -242 c1 -90 -2 -120
-13 -129 -11 -9 -14 -9 -14 1 0 10 -3 10 -15 0 -11 -9 -15 -9 -15 -1 0 7 -4
10 -8 7 -4 -2 -14 -1 -22 5 -8 5 -10 9 -5 9 6 0 9 28 7 71 -3 57 -1 70 10 64
10 -6 11 -5 1 6 -7 7 -13 30 -13 51 l0 38 43 -3 42 -2 2 -117z"/>
<path d="M4506 2814 c-14 -14 -15 -19 -4 -25 8 -6 9 -9 2 -9 -15 0 -14 -80 0
-80 6 0 5 -4 -2 -9 -7 -4 -12 -14 -10 -22 2 -8 -3 -13 -12 -11 -12 3 -12 0 2
-15 8 -10 14 -27 12 -38 -1 -11 2 -23 9 -27 9 -6 9 -8 1 -8 -7 0 -15 -7 -18
-16 -3 -8 -2 -13 3 -10 5 4 8 -24 6 -64 -3 -53 -1 -69 8 -63 7 4 6 0 -2 -10
-11 -14 -11 -17 0 -17 9 0 10 -3 4 -8 -11 -7 -15 -71 -5 -70 36 3 100 -4 96
-11 -3 -5 2 -15 12 -22 15 -12 16 -12 4 2 -10 13 -9 19 3 29 8 7 15 8 15 3 0
-6 12 -8 26 -5 17 3 25 1 21 -5 -4 -6 1 -17 11 -24 15 -12 16 -12 4 2 -10 13
-9 19 3 29 8 7 15 9 15 4 0 -5 16 -9 35 -9 19 0 35 4 35 8 0 5 3 6 8 4 12 -8
5 104 -7 116 -6 6 -11 7 -11 2 0 -6 -5 -3 -10 5 -6 10 -10 11 -10 3 0 -9 -7
-10 -25 -3 -14 5 -25 6 -25 1 0 -9 -30 -8 -47 2 -6 4 -14 1 -16 -5 -4 -10 -6
-10 -6 -1 -1 7 -8 10 -18 6 -11 -4 -14 -3 -9 5 4 7 2 12 -5 12 -8 0 -8 4 1 15
10 12 10 15 -1 15 -11 0 -11 2 1 10 12 8 12 10 1 10 -11 0 -11 3 -1 15 10 12
10 15 0 15 -10 0 -10 3 0 15 10 12 10 15 -1 15 -11 0 -11 2 1 10 12 8 12 10 1
10 -11 0 -11 3 -1 15 10 12 10 15 0 15 -10 0 -10 3 0 15 10 12 10 15 -1 15
-11 0 -11 2 1 10 12 8 12 10 1 10 -11 0 -11 3 -1 15 8 10 9 15 2 15 -13 0 -4
31 12 42 7 5 4 8 -7 8 -14 0 -16 4 -7 19 7 14 6 21 -3 24 -9 4 -9 6 1 6 10 1
10 4 0 15 -7 8 -17 11 -23 8 -14 -9 -39 -8 -46 1 -3 5 -14 1 -23 -9z"/>
<path d="M3598 2254 c-4 -3 -24 -7 -45 -8 -29 -1 -38 -5 -37 -19 1 -9 -2 -17
-6 -17 -5 0 -5 -13 0 -30 6 -21 5 -30 -3 -30 -7 0 -6 -4 3 -10 8 -5 10 -10 4
-10 -12 0 -11 -41 2 -61 4 -8 3 -9 -4 -5 -7 4 -12 3 -12 -3 0 -5 5 -13 11 -17
8 -4 7 -9 -2 -15 -11 -7 -11 -9 1 -9 13 0 13 -1 0 -10 -13 -9 -13 -11 0 -19
12 -9 12 -11 -3 -17 -17 -6 -17 -7 0 -21 10 -8 13 -12 7 -9 -7 3 -11 -4 -11
-19 0 -14 3 -23 7 -20 4 2 5 -7 2 -20 -2 -14 -8 -23 -12 -20 -4 2 -5 -7 -2
-20 2 -14 8 -23 12 -20 4 2 5 -7 2 -20 -2 -14 -9 -22 -15 -18 -6 3 -7 1 -3 -5
4 -7 14 -12 22 -12 8 0 14 -5 14 -11 0 -5 6 -7 12 -3 23 14 49 12 43 -4 -5
-13 -3 -13 11 -1 18 14 53 17 72 5 6 -4 16 -5 21 -1 5 3 13 1 16 -5 5 -8 11
-8 19 -1 7 6 16 8 20 4 10 -10 37 -13 31 -3 -3 4 2 11 11 14 8 3 13 2 10 -3
-3 -5 1 -12 10 -15 8 -3 13 -2 10 3 -3 5 1 12 10 15 10 4 13 2 9 -7 -4 -6 0
-4 8 5 8 10 17 15 20 11 4 -3 7 -1 7 5 0 6 -5 14 -10 17 -7 4 -6 14 1 28 8 14
8 22 1 25 -5 1 -8 11 -5 21 4 16 -5 17 -109 17 l-113 -1 -3 29 c-3 28 -2 29
14 15 10 -8 15 -9 11 -3 -4 7 0 14 8 18 8 3 15 0 15 -6 0 -7 5 -6 15 2 11 9
15 9 15 1 0 -9 5 -9 20 -1 17 9 20 8 20 -7 0 -11 3 -14 8 -7 11 16 42 25 42
12 0 -7 5 -6 15 2 10 9 15 9 15 1 0 -15 36 21 36 37 1 6 -4 12 -10 12 -6 0 -4
5 4 10 12 8 12 10 1 10 -11 0 -11 3 -1 15 9 10 9 15 1 15 -6 0 -10 3 -10 8 4
24 -2 31 -23 24 -18 -6 -160 -8 -188 -3 -3 1 -7 13 -8 28 -1 14 1 23 5 20 3
-4 12 -2 19 4 8 7 14 6 20 -2 5 -8 3 -9 -6 -4 -9 5 -11 4 -6 -4 6 -9 11 -9 23
1 18 15 41 17 66 5 11 -5 17 -4 17 5 0 8 3 9 8 3 10 -14 42 -15 42 -1 0 7 3 7
8 -2 6 -9 15 -6 32 13 15 16 18 24 9 20 -10 -4 -16 0 -16 9 0 8 4 13 9 10 4
-3 8 0 8 5 0 6 -5 11 -11 11 -8 0 -8 5 1 15 8 10 9 15 2 15 -6 0 -9 6 -6 14 4
11 -17 14 -120 12 -69 0 -127 3 -129 7 -1 5 -6 5 -9 1z"/>
<path d="M4030 2254 c0 -5 -28 -9 -62 -9 -56 0 -63 -2 -63 -20 0 -11 4 -26 9
-33 6 -9 5 -11 -5 -7 -10 4 -15 -1 -15 -14 0 -11 3 -18 7 -15 9 5 4 -63 -6
-91 -5 -16 -5 -17 4 -5 8 12 10 5 7 -27 -2 -22 -7 -47 -11 -54 -6 -9 -3 -11
11 -6 18 7 18 7 0 -8 -11 -8 -14 -15 -8 -15 7 0 12 -5 12 -11 0 -5 -6 -7 -12
-3 -9 5 -9 2 1 -9 7 -9 10 -17 6 -17 -4 0 -1 -8 6 -17 8 -9 9 -14 3 -10 -9 5
-11 -11 -10 -53 1 -42 5 -60 14 -60 7 0 11 -4 8 -8 -3 -5 1 -9 9 -9 8 0 15 5
15 11 0 6 4 5 9 -2 4 -8 12 -14 16 -14 4 0 12 6 16 14 6 8 9 9 9 1 0 -6 9 -9
22 -5 16 4 19 2 14 -9 -4 -8 0 -5 8 5 9 11 16 15 16 9 0 -13 42 -12 52 2 5 6
8 6 8 -2 0 -7 9 -10 22 -8 12 3 28 -1 37 -8 9 -8 12 -8 8 -1 -8 14 28 25 40
13 5 -5 16 0 26 11 11 14 13 20 4 20 -8 0 -7 4 3 10 8 5 10 10 3 10 -12 0 -12
17 0 38 5 7 3 12 -4 12 -8 0 -7 5 2 17 12 15 12 16 -1 8 -13 -7 -13 -6 -2 7
10 13 10 17 0 20 -11 4 -11 8 0 20 10 13 10 17 0 20 -10 4 -10 8 1 21 10 13
10 17 1 17 -9 0 -10 3 -1 13 6 8 8 17 4 20 -11 11 -12 78 -1 71 21 -13 -17 43
-53 79 -22 21 -39 43 -39 48 0 6 -4 7 -10 4 -5 -3 -10 0 -10 8 0 11 -12 14
-47 13 -27 -1 -54 2 -60 7 -7 5 -13 6 -13 1z m31 -133 c0 10 2 11 6 2 3 -9 10
-10 21 -4 11 6 23 5 32 -2 12 -10 15 -34 14 -117 -1 -58 -2 -108 -3 -111 -1
-3 -22 -5 -48 -3 -65 3 -63 3 -63 15 0 6 7 8 16 5 14 -6 15 -4 3 10 -14 17
-21 96 -7 88 4 -3 5 1 2 9 -9 24 -10 97 -1 97 4 0 5 6 1 13 -5 8 -2 8 9 -2 14
-11 17 -11 18 0z"/>
<path d="M2889 2231 c-1 -9 -1 -29 -1 -46 0 -16 -5 -36 -12 -44 -8 -12 -8 -13
2 -7 6 4 12 2 12 -3 0 -6 -6 -11 -12 -11 -9 0 -9 -3 -2 -8 13 -9 15 -114 1
-105 -6 4 -7 1 -1 -8 14 -22 15 -180 0 -172 -6 4 -5 -1 3 -10 7 -9 11 -23 8
-30 -3 -7 4 -19 15 -26 16 -10 19 -10 13 1 -6 10 -5 11 6 1 7 -7 17 -13 22
-13 4 0 5 6 1 13 -6 10 -4 10 7 0 16 -16 33 -17 23 -2 -4 8 0 8 15 0 20 -11
26 -7 21 14 -2 10 -3 292 -1 335 1 14 5 21 9 15 4 -5 16 -10 27 -10 11 0 23 5
27 10 5 6 8 5 8 -2 0 -7 3 -12 8 -12 27 5 30 -4 28 -71 -1 -38 2 -70 7 -70 4
0 5 -5 1 -12 -12 -18 -11 -171 0 -190 7 -12 14 -14 22 -7 8 7 14 6 19 -1 5 -8
11 -7 23 2 9 8 13 8 9 2 -4 -7 0 -14 8 -18 8 -3 14 -2 12 2 -1 4 3 7 8 7 6 0
9 -4 7 -8 -1 -5 2 -6 8 -2 6 3 7 12 3 18 -12 19 -8 54 8 73 12 15 12 16 0 9
-11 -6 -13 -4 -8 8 3 10 3 17 -2 17 -9 0 -5 55 4 70 3 5 1 11 -4 14 -6 4 -6
18 -1 35 4 16 5 32 2 36 -9 9 -2 77 9 91 7 9 18 10 35 4 17 -7 24 -6 24 3 0 8
4 7 10 -3 5 -8 10 -11 10 -6 0 5 7 3 15 -4 9 -7 12 -16 7 -19 -5 -3 -6 -34 -2
-69 3 -35 3 -65 0 -67 -6 -4 -3 -81 4 -101 2 -6 2 -15 -1 -18 -4 -3 -7 -19 -7
-36 -1 -27 5 -35 27 -31 4 0 7 -4 7 -10 0 -5 6 -7 12 -3 23 14 49 12 43 -4 -5
-13 -3 -13 11 -1 10 8 19 13 21 12 11 -9 13 -1 3 12 -7 8 -9 15 -4 15 5 0 8
57 6 126 -2 99 0 124 10 118 10 -6 11 -4 1 7 -7 7 -13 28 -13 47 0 18 -6 39
-12 47 -7 7 -34 35 -60 62 l-46 50 -231 0 c-204 0 -231 -2 -232 -16z"/>
<path d="M4299 2245 c-1 0 -2 -107 -3 -238 -3 -243 2 -272 36 -251 17 11 48
13 42 2 -9 -14 14 -9 29 7 8 8 18 11 22 7 5 -4 4 0 -1 8 -11 19 -15 72 -5 66
4 -3 8 1 8 9 0 8 -4 12 -9 9 -4 -3 -8 -1 -8 5 0 5 6 12 13 14 10 4 10 6 0 6
-7 1 -13 6 -13 12 0 5 6 7 13 3 9 -5 9 -4 0 6 -10 11 -10 17 0 29 10 12 9 13
-1 7 -12 -7 -12 -4 -2 14 8 15 8 20 1 16 -6 -4 -11 -4 -11 -1 0 4 5 16 11 27
8 15 8 19 0 14 -6 -4 -11 -4 -11 -1 0 4 5 16 11 27 8 15 8 19 0 14 -12 -8 -15
6 -4 18 11 10 12 37 2 30 -5 -3 -9 -1 -9 5 0 5 6 12 13 14 10 4 10 6 0 6 -7 1
-13 6 -13 12 0 5 4 8 8 5 5 -3 9 1 9 9 0 8 -4 12 -9 9 -10 -6 -6 26 6 45 6 10
5 12 -2 7 -8 -5 -12 0 -12 13 0 19 -6 20 -55 19 -30 -1 -56 -2 -56 -3z"/>
<path d="M4455 2242 c-2 -2 -1 -15 1 -29 3 -17 1 -22 -7 -17 -8 5 -9 3 -3 -7
11 -19 12 -60 1 -83 -6 -13 -6 -16 3 -11 14 9 10 -27 -5 -37 -6 -5 -6 -8 1 -8
13 0 12 -50 -1 -70 -5 -9 -4 -11 3 -6 13 8 12 -20 -1 -41 -4 -6 -3 -14 2 -18
10 -6 7 -37 -5 -57 -4 -6 -3 -8 3 -5 7 5 10 -11 8 -47 -2 -53 4 -61 33 -43 7
5 12 3 12 -4 0 -8 4 -8 15 1 10 9 15 9 15 1 0 -16 23 -9 38 12 8 10 10 26 7
38 -4 13 -3 19 2 16 5 -4 10 0 10 8 0 8 -3 15 -6 15 -5 0 -6 54 -2 92 0 6 11
0 23 -13 13 -15 19 -18 15 -7 -7 19 23 35 33 18 4 -6 13 -10 21 -8 10 2 14
-14 14 -77 0 -70 3 -81 20 -91 14 -7 22 -7 27 0 5 7 8 6 8 -2 0 -8 5 -10 12
-5 7 4 22 7 33 8 25 0 27 23 23 208 -2 53 1 97 5 97 5 0 5 5 1 12 -4 7 -8 47
-7 89 l1 76 -175 -1 c-96 0 -176 -2 -178 -4z m150 -134 c4 0 12 6 16 14 5 7 9
8 9 2 0 -6 7 -11 15 -11 8 0 15 4 15 9 0 5 6 3 13 -4 19 -18 17 -48 -2 -49 -9
0 -26 -2 -38 -3 -15 -2 -23 3 -23 13 -1 12 -3 11 -12 -4 -12 -19 -12 -19 -18
5 -8 30 -1 58 10 40 4 -6 11 -12 15 -12z"/>
<path d="M3866 2122 c-3 -5 1 -9 9 -9 8 0 12 4 9 9 -3 4 -7 8 -9 8 -2 0 -6 -4
-9 -8z"/>
<path d="M3850 1939 c0 -5 5 -7 10 -4 6 3 10 8 10 11 0 2 -4 4 -10 4 -5 0 -10
-5 -10 -11z"/>
<path d="M1395 1760 c-3 -6 1 -7 9 -4 18 7 21 14 7 14 -6 0 -13 -4 -16 -10z"/>
<path d="M4570 1755 c0 -8 2 -15 4 -15 2 0 6 7 10 15 3 8 1 15 -4 15 -6 0 -10
-7 -10 -15z"/>
</g>
</svg>
